<?xml version="1.0" standalone="no"?>
<svg xmlns="http://www.w3.org/2000/svg" viewBox="0 0 232.5 29.001" width="232.5" height="29.001"><g fill="#cca131" color="#cca131" transform="translate(0, 0) scale(0.5370371)"><svg width="50.0" height="54.0" x="0.0" y="0.0" viewBox="0 0 50 54"><path fill="currentColor" fill-rule="evenodd" d="M47.431 51.939l-7.898-1.25.029-8.411.053-2.538 7.816 12.199zM38.12 36.031l-.112 5.749-20.116-6.569.25-.822c.02-.036.028-.068.038-.101l7.247-23.331L38.12 36.031zM20.882 20.274l-3.644 11.72-8-16.075 11.644 4.355zm5.389-11.085l11.4-6.724-5.306 18.764-6.094-12.04zm7.147 14.098l3-10.628 7.335-2.946L33.698 23.84l-.28-.553zM9.879 20.714l-7.244-.649 4.779-4.306 2.465 4.955zm39.815 31.857L39.672 36.932l.019-1.014a.719.719 0 0 0-.087-.418l-5.102-10.075L46.573 8.461c.162-.22.2-.503.1-.763a.8.8 0 0 0-1.014-.437l-8.699 3.49 2.751-9.749a.81.81 0 0 0-.075-.617.801.801 0 0 0-.488-.361.768.768 0 0 0-.583.083l-13.72 8.1a.758.758 0 0 0-.352.462l-3.142 10.107-13.364-5a.78.78 0 0 0-.694.023 1.516 1.516 0 0 0-.169.119L.273 20.1a.775.775 0 0 0-.271.546.77.77 0 0 0 .205.576.816.816 0 0 0 .542.26l9.961.888 5.873 11.795-.412 1.329a.834.834 0 0 0 .043.584.77.77 0 0 0 .46.402L38 43.444l-.029 7.939a.79.79 0 0 0 .661.777l10.225 1.614c.071.019.136.019.184.019.138 0 .28-.038.45-.137.331-.274.418-.739.203-1.085z"></path></svg></g><line x1="38.852" y1="1" x2="38.852" y2="28.001" stroke="#0a1256" stroke-linecap="round"></line><path fill="#0a1256" fill-rule="nonzero" d="M12.67 0.14L12.65 1.01Q12.65 1.97 12.82 3.98L12.82 3.98Q12.31 4.22 11.62 4.20L11.62 4.20Q11.57 2.76 10.92 2.02Q10.27 1.27 8.90 1.27L8.90 1.27L7.63 1.27L7.63 13.39Q7.63 14.23 7.78 14.65Q7.92 15.07 8.32 15.25Q8.71 15.43 9.50 15.48L9.50 15.48Q9.62 15.82 9.62 16.51L9.62 16.51Q8.09 16.44 6.48 16.44L6.48 16.44Q4.68 16.44 3.34 16.51L3.34 16.51Q3.34 15.82 3.46 15.48L3.46 15.48Q4.25 15.43 4.66 15.25Q5.06 15.07 5.22 14.64Q5.38 14.21 5.38 13.39L5.38 13.39L5.38 1.27L4.15 1.27Q3.05 1.27 2.45 1.62Q1.85 1.97 1.60 2.56Q1.34 3.14 1.15 4.20L1.15 4.20Q0.36 4.20 0 3.98L0 3.98Q0.38 1.82 0.38 0.14L0.38 0.14Q1.73 0.22 6.50 0.22L6.50 0.22Q11.35 0.22 12.67 0.14L12.67 0.14ZM21.98 16.66Q19.66 16.66 17.86 15.56Q16.06 14.47 15.06 12.56Q14.06 10.66 14.06 8.28L14.06 8.28Q14.06 5.88 15.11 4.00Q16.15 2.11 17.96 1.06Q19.78 0 21.98 0L21.98 0Q24.26 0 26.08 1.04Q27.89 2.09 28.91 3.97Q29.93 5.86 29.93 8.28L29.93 8.28Q29.93 10.63 28.91 12.54Q27.89 14.45 26.08 15.55Q24.26 16.66 21.98 16.66L21.98 16.66ZM22.46 15.48Q23.98 15.48 25.12 14.62Q26.26 13.75 26.86 12.25Q27.46 10.75 27.46 8.90L27.46 8.90Q27.46 6.77 26.68 4.99Q25.90 3.22 24.53 2.18Q23.16 1.15 21.48 1.15L21.48 1.15Q20.06 1.15 18.94 1.97Q17.81 2.78 17.17 4.25Q16.54 5.71 16.54 7.63L16.54 7.63Q16.54 9.70 17.24 11.50Q17.95 13.30 19.30 14.39Q20.64 15.48 22.46 15.48L22.46 15.48ZM42.89 13.03Q43.58 13.94 44.02 14.39Q44.45 14.83 45.02 15.10Q45.60 15.36 46.51 15.41L46.51 15.41Q46.51 16.01 46.39 16.44L46.39 16.44Q43.99 16.44 42.58 16.58L42.58 16.58Q41.62 15.00 39.67 12.53Q37.73 10.06 36.14 8.62L36.14 8.62L36.14 13.39Q36.14 14.59 36.49 15.01Q36.84 15.43 37.80 15.48L37.80 15.48Q37.92 15.82 37.92 16.51L37.92 16.51Q36.48 16.44 35.02 16.44L35.02 16.44Q33.34 16.44 32.11 16.51L32.11 16.51Q32.11 15.82 32.23 15.48L32.23 15.48Q33.19 15.43 33.54 15.01Q33.89 14.59 33.89 13.39L33.89 13.39L33.89 3.26Q33.89 2.06 33.54 1.64Q33.19 1.22 32.23 1.18L32.23 1.18Q32.11 0.84 32.11 0.14L32.11 0.14Q33.43 0.22 35.02 0.22L35.02 0.22Q36.48 0.22 37.92 0.14L37.92 0.14Q37.92 0.84 37.80 1.18L37.80 1.18Q36.84 1.22 36.49 1.64Q36.14 2.06 36.14 3.26L36.14 3.26L36.14 7.92L40.68 3.17Q41.57 2.26 41.57 1.73L41.57 1.73Q41.57 1.20 40.78 1.18L40.78 1.18Q40.66 0.79 40.66 0.14L40.66 0.14Q41.45 0.22 43.13 0.22L43.13 0.22Q44.64 0.22 45.60 0.14L45.60 0.14Q45.60 0.84 45.46 1.18L45.46 1.18Q44.59 1.22 43.87 1.66Q43.15 2.09 42.05 3.26L42.05 3.26L38.14 7.42Q39.86 9.07 42.89 13.03L42.89 13.03ZM55.08 16.66Q52.75 16.66 50.95 15.56Q49.15 14.47 48.16 12.56Q47.16 10.66 47.16 8.28L47.16 8.28Q47.16 5.88 48.20 4.00Q49.25 2.11 51.06 1.06Q52.87 0 55.08 0L55.08 0Q57.36 0 59.17 1.04Q60.98 2.09 62.00 3.97Q63.02 5.86 63.02 8.28L63.02 8.28Q63.02 10.63 62.00 12.54Q60.98 14.45 59.17 15.55Q57.36 16.66 55.08 16.66L55.08 16.66ZM55.56 15.48Q57.07 15.48 58.21 14.62Q59.35 13.75 59.95 12.25Q60.55 10.75 60.55 8.90L60.55 8.90Q60.55 6.77 59.77 4.99Q58.99 3.22 57.62 2.18Q56.26 1.15 54.58 1.15L54.58 1.15Q53.16 1.15 52.03 1.97Q50.90 2.78 50.27 4.25Q49.63 5.71 49.63 7.63L49.63 7.63Q49.63 9.70 50.34 11.50Q51.05 13.30 52.39 14.39Q53.74 15.48 55.56 15.48L55.56 15.48ZM81.05 12.34Q81.74 12.55 82.10 12.91L82.10 12.91Q81.65 14.33 81.36 16.49L81.36 16.49Q79.49 16.44 76.22 16.44L76.22 16.44Q71.81 16.44 70.01 16.51L70.01 16.51Q70.01 15.82 70.13 15.48L70.13 15.48Q70.80 15.43 71.15 15.24Q71.50 15.05 71.64 14.57Q71.78 14.09 71.78 13.13L71.78 13.13L71.78 3.26Q71.78 2.06 71.44 1.64Q71.09 1.22 70.13 1.18L70.13 1.18Q70.01 0.84 70.01 0.14L70.01 0.14Q71.42 0.22 74.04 0.22L74.04 0.22Q78.41 0.22 80.78 0.14L80.78 0.14Q81.02 2.78 81.29 3.94L81.29 3.94Q80.93 4.22 80.21 4.22L80.21 4.22Q80.09 2.88 79.24 2.03Q78.38 1.18 76.27 1.18L76.27 1.18L74.04 1.18L74.04 7.75L75.55 7.75Q77.06 7.75 77.63 7.36Q78.19 6.96 78.22 5.81L78.22 5.81Q78.79 5.64 79.37 5.64L79.37 5.64Q79.32 6.46 79.32 8.26L79.32 8.26Q79.32 10.22 79.37 11.04L79.37 11.04Q78.72 11.04 78.26 10.92L78.26 10.92Q78.17 9.67 77.60 9.23Q77.04 8.78 75.55 8.78L75.55 8.78L74.04 8.78L74.04 13.13Q74.04 14.04 74.21 14.51Q74.38 14.98 74.84 15.17Q75.31 15.36 76.22 15.36L76.22 15.36L76.37 15.36Q78.02 15.36 78.91 15.02Q79.80 14.69 80.22 14.09Q80.64 13.49 81.05 12.34L81.05 12.34ZM84.91 16.49Q84.91 15.74 85.03 15.41L85.03 15.41Q85.63 15.36 85.93 15.22Q86.23 15.07 86.35 14.71Q86.47 14.35 86.47 13.63L86.47 13.63L86.47 7.22Q86.47 6.53 86.35 6.17Q86.23 5.81 85.93 5.66Q85.63 5.52 85.03 5.47L85.03 5.47Q84.91 5.11 84.91 4.39L84.91 4.39Q86.45 4.44 87.60 4.44L87.60 4.44Q88.56 4.44 90.24 4.39L90.24 4.39Q90.24 5.14 90.14 5.47L90.14 5.47Q89.28 5.52 88.98 5.86Q88.68 6.19 88.68 7.22L88.68 7.22L88.68 13.63Q88.68 14.66 88.98 15.01Q89.28 15.36 90.14 15.41L90.14 15.41Q90.24 15.77 90.24 16.49L90.24 16.49Q88.61 16.44 87.60 16.44L87.60 16.44Q86.40 16.44 84.91 16.49L84.91 16.49ZM100.37 16.61Q98.30 16.61 96.72 15.82Q95.14 15.02 94.26 13.60Q93.38 12.17 93.38 10.32L93.38 10.32Q93.38 8.40 94.42 7.04Q95.45 5.69 97.13 4.99Q98.81 4.30 100.73 4.30L100.73 4.30Q102.19 4.30 103.52 4.52Q104.86 4.75 105.77 5.16L105.77 5.16Q105.55 6.07 105.55 7.92L105.55 7.92Q105.12 8.11 104.33 8.11L104.33 8.11Q104.26 6.60 103.34 5.98Q102.43 5.35 100.87 5.35L100.87 5.35Q99.22 5.35 98.08 5.98Q96.94 6.60 96.38 7.64Q95.83 8.69 95.83 9.91L95.83 9.91Q95.83 12.36 97.12 13.90Q98.40 15.43 100.78 15.43L100.78 15.43Q101.52 15.43 101.93 15.41Q102.34 15.38 102.77 15.26L102.77 15.26Q103.15 15.17 103.32 14.89Q103.49 14.62 103.49 13.97L103.49 13.97L103.49 13.22Q103.49 12.53 103.37 12.23Q103.25 11.93 102.89 11.82Q102.53 11.71 101.71 11.69L101.71 11.69Q101.57 11.26 101.57 10.58L101.57 10.58Q102.12 10.63 104.18 10.63L104.18 10.63Q106.22 10.63 106.70 10.58L106.70 10.58Q106.70 11.26 106.58 11.69L106.58 11.69Q106.13 11.71 105.94 11.82Q105.74 11.93 105.67 12.20Q105.60 12.48 105.60 13.08L105.60 13.08L105.60 13.68Q105.60 14.23 105.66 14.56Q105.72 14.88 105.89 15.24L105.89 15.24Q104.93 15.86 103.50 16.24Q102.07 16.61 100.37 16.61L100.37 16.61ZM122.76 13.70Q122.76 14.74 123.06 15.08Q123.36 15.43 124.20 15.48L124.20 15.48Q124.32 15.77 124.32 16.49L124.32 16.49Q122.69 16.44 121.68 16.44L121.68 16.44Q120.48 16.44 118.99 16.49L118.99 16.49Q118.99 15.77 119.11 15.48L119.11 15.48Q119.95 15.43 120.25 15.08Q120.55 14.74 120.55 13.70L120.55 13.70L120.55 10.78Q115.94 10.78 114.34 10.90L114.34 10.90L114.34 13.70Q114.34 14.74 114.64 15.08Q114.94 15.43 115.80 15.48L115.80 15.48Q115.90 15.79 115.90 16.49L115.90 16.49Q114.26 16.44 113.26 16.44L113.26 16.44Q112.06 16.44 110.57 16.49L110.57 16.49Q110.57 15.77 110.69 15.48L110.69 15.48Q111.29 15.43 111.59 15.29Q111.89 15.14 112.01 14.78Q112.13 14.42 112.13 13.70L112.13 13.70L112.13 7.15Q112.13 6.46 112.01 6.10Q111.89 5.74 111.59 5.59Q111.29 5.45 110.69 5.40L110.69 5.40Q110.57 5.06 110.57 4.39L110.57 4.39Q112.10 4.44 113.26 4.44L113.26 4.44Q114.22 4.44 115.90 4.39L115.90 4.39Q115.90 5.09 115.80 5.40L115.80 5.40Q114.94 5.45 114.64 5.78Q114.34 6.12 114.34 7.15L114.34 7.15L114.34 9.72L120.55 9.72L120.55 7.15Q120.55 6.46 120.42 6.10Q120.29 5.74 119.99 5.59Q119.69 5.45 119.09 5.40L119.09 5.40Q118.99 5.04 118.99 4.39L118.99 4.39Q120.53 4.44 121.66 4.44L121.66 4.44Q122.64 4.44 124.32 4.39L124.32 4.39Q124.32 5.02 124.20 5.40L124.20 5.40Q123.34 5.45 123.05 5.78Q122.76 6.12 122.76 7.15L122.76 7.15L122.76 13.70ZM138.62 4.39Q138.55 5.69 138.79 7.51L138.79 7.51Q138.29 7.73 137.62 7.73L137.62 7.73Q137.57 6.58 137.00 6.02Q136.44 5.47 135.24 5.47L135.24 5.47L134.18 5.47L134.18 13.70Q134.18 14.45 134.32 14.80Q134.45 15.14 134.80 15.29Q135.14 15.43 135.86 15.48L135.86 15.48Q135.98 15.77 135.98 16.49L135.98 16.49Q134.21 16.44 133.08 16.44L133.08 16.44Q131.69 16.44 130.10 16.49L130.10 16.49Q130.10 15.77 130.22 15.48L130.22 15.48Q130.94 15.43 131.32 15.29Q131.69 15.14 131.83 14.78Q131.98 14.42 131.98 13.70L131.98 13.70L131.98 5.47L130.99 5.47Q130.03 5.47 129.52 5.72Q129 5.98 128.76 6.43Q128.52 6.89 128.35 7.73L128.35 7.73Q127.58 7.73 127.22 7.51L127.22 7.51Q127.58 5.88 127.58 4.39L127.58 4.39Q128.83 4.44 133.08 4.44L133.08 4.44Q137.40 4.44 138.62 4.39L138.62 4.39ZM151.51 13.03Q152.16 13.15 152.57 13.56L152.57 13.56Q152.14 14.69 151.92 16.46L151.92 16.46L147.29 16.44Q143.83 16.44 141.72 16.49L141.72 16.49Q141.72 15.74 141.84 15.41L141.84 15.41Q142.44 15.36 142.74 15.22Q143.04 15.07 143.16 14.69Q143.28 14.30 143.28 13.54L143.28 13.54L143.28 7.22Q143.28 6.53 143.15 6.17Q143.02 5.81 142.72 5.66Q142.42 5.52 141.84 5.47L141.84 5.47Q141.72 5.11 141.72 4.39L141.72 4.39Q143.45 4.44 145.49 4.44L145.49 4.44Q149.90 4.44 151.39 4.39L151.39 4.39Q151.66 6.65 151.85 7.37L151.85 7.37Q151.44 7.63 150.77 7.63L150.77 7.63Q150.67 6.62 149.94 6.05Q149.21 5.47 147.36 5.47L147.36 5.47L145.49 5.47L145.49 9.89L146.69 9.89Q147.96 9.89 148.45 9.60Q148.94 9.31 148.97 8.54L148.97 8.54Q149.50 8.38 150.07 8.38L150.07 8.38Q150.02 8.98 150.02 10.39L150.02 10.39Q150.02 11.93 150.07 12.48L150.07 12.48Q149.42 12.48 149.02 12.34L149.02 12.34Q148.94 11.54 148.45 11.26Q147.96 10.97 146.69 10.97L146.69 10.97L145.49 10.97L145.49 13.49Q145.49 14.26 145.64 14.65Q145.80 15.05 146.20 15.20Q146.59 15.36 147.38 15.36L147.38 15.36L147.53 15.36Q148.92 15.36 149.68 15.12Q150.43 14.88 150.80 14.41Q151.18 13.94 151.51 13.03L151.51 13.03ZM165.65 13.03Q166.30 13.15 166.70 13.56L166.70 13.56Q166.27 14.69 166.06 16.46L166.06 16.46L161.42 16.44Q157.97 16.44 155.86 16.49L155.86 16.49Q155.86 15.74 155.98 15.41L155.98 15.41Q156.58 15.36 156.88 15.22Q157.18 15.07 157.30 14.69Q157.42 14.30 157.42 13.54L157.42 13.54L157.42 7.22Q157.42 6.53 157.28 6.17Q157.15 5.81 156.85 5.66Q156.55 5.52 155.98 5.47L155.98 5.47Q155.86 5.11 155.86 4.39L155.86 4.39Q157.58 4.44 159.62 4.44L159.62 4.44Q164.04 4.44 165.53 4.39L165.53 4.39Q165.79 6.65 165.98 7.37L165.98 7.37Q165.58 7.63 164.90 7.63L164.90 7.63Q164.81 6.62 164.08 6.05Q163.34 5.47 161.50 5.47L161.50 5.47L159.62 5.47L159.62 9.89L160.82 9.89Q162.10 9.89 162.59 9.60Q163.08 9.31 163.10 8.54L163.10 8.54Q163.63 8.38 164.21 8.38L164.21 8.38Q164.16 8.98 164.16 10.39L164.16 10.39Q164.16 11.93 164.21 12.48L164.21 12.48Q163.56 12.48 163.15 12.34L163.15 12.34Q163.08 11.54 162.59 11.26Q162.10 10.97 160.82 10.97L160.82 10.97L159.62 10.97L159.62 13.49Q159.62 14.26 159.78 14.65Q159.94 15.05 160.33 15.20Q160.73 15.36 161.52 15.36L161.52 15.36L161.66 15.36Q163.06 15.36 163.81 15.12Q164.57 14.88 164.94 14.41Q165.31 13.94 165.65 13.03L165.65 13.03ZM181.63 4.44Q182.54 4.44 183.65 4.39L183.65 4.39Q183.65 5.11 183.55 5.47L183.55 5.47Q183.05 5.52 182.78 5.74Q182.52 5.95 182.41 6.47Q182.30 6.98 182.30 7.99L182.30 7.99L182.30 16.46Q181.99 16.61 181.32 16.61L181.32 16.61L172.70 7.08L172.70 12.84Q172.70 13.87 172.84 14.40Q172.97 14.93 173.28 15.14Q173.59 15.36 174.19 15.41L174.19 15.41Q174.31 15.79 174.31 16.49L174.31 16.49Q173.02 16.44 172.18 16.44L172.18 16.44Q171.05 16.44 169.99 16.49L169.99 16.49Q169.99 15.79 170.11 15.41L170.11 15.41Q170.71 15.36 171.01 15.14Q171.31 14.93 171.44 14.40Q171.58 13.87 171.58 12.84L171.58 12.84L171.58 5.83L171.55 5.81Q171.38 5.64 171.12 5.58Q170.86 5.52 170.11 5.47L170.11 5.47Q169.99 5.04 169.99 4.39L169.99 4.39Q170.86 4.44 171.67 4.44L171.67 4.44Q172.42 4.44 173.18 4.39L173.18 4.39L181.18 13.34L181.18 7.99Q181.18 6.98 181.04 6.47Q180.91 5.95 180.60 5.74Q180.29 5.52 179.66 5.47L179.66 5.47Q179.57 4.92 179.57 4.39L179.57 4.39Q180.77 4.44 181.63 4.44L181.63 4.44Z" transform="translate(48.852, 6.281)"></path></svg>